<svg width="576.25625px" height="122px" xmlns="http://www.w3.org/2000/svg" viewBox="-38.12812500000001 14 576.25625 122" style="background: rgba(0, 0, 0, 0);" preserveAspectRatio="xMidYMid"><defs><filter id="editing-hole" x="-100%" y="-100%" width="300%" height="300%"><feFlood flood-color="#000" result="black"></feFlood><feMorphology operator="dilate" radius="2" in="SourceGraphic" result="erode"></feMorphology><feGaussianBlur in="erode" stdDeviation="4" result="blur"></feGaussianBlur><feOffset in="blur" dx="2" dy="2" result="offset"></feOffset><feComposite operator="atop" in="offset" in2="black" result="merge"></feComposite><feComposite operator="in" in="merge" in2="SourceGraphic" result="inner-shadow"></feComposite></filter></defs><g filter="url(#editing-hole)"><g transform="translate(46.574995279312134, 104.44000053405762)"><path d="M28.42-9.86L28.42-9.86L28.42-9.86Q29.63-8.32 29.63-5.82L29.63-5.82L29.63-5.82Q29.63-2.37 27.07-0.54L27.07-0.54L27.07-0.54Q24.51 1.28 20.48 1.28L20.48 1.28L20.48 1.28Q18.18 1.28 14.66 0.77L14.66 0.77L14.66 0.77Q7.74-0.32 5.63-0.32L5.63-0.32L5.63-0.32Q3.52-0.32 2.69-0.22L2.69-0.22L2.69-0.22Q1.86-0.13 0.51 0L0.51 0L8.38-42.24L35.97-42.24L35.97-42.24Q35.97-38.34 34.08-36.29L34.08-36.29L34.08-36.29Q32.19-34.24 28.48-34.24L28.48-34.24L28.48-34.24Q24.77-34.24 20.99-35.97L20.99-35.97L19.01-24.77L30.40-24.77L30.40-24.77Q30.40-21.38 28.74-19.49L28.74-19.49L28.74-19.49Q27.07-17.60 24.29-17.60L24.29-17.60L24.29-17.60Q21.50-17.60 19.78-18.24L19.78-18.24L19.78-18.24Q18.05-18.88 17.86-19.07L17.86-19.07L15.55-6.98L15.55-6.98Q17.09-6.78 19.97-6.78L19.97-6.78L19.97-6.78Q24.90-6.78 28.42-9.86ZM44.03 0.19L44.03 0.19L44.03 0.19Q41.98 1.28 39.17 1.28L39.17 1.28L39.17 1.28Q36.35 1.28 34.82-0.16L34.82-0.16L34.82-0.16Q33.28-1.60 33.28-4.38L33.28-4.38L33.28-4.38Q33.28-7.17 35.23-9.89L35.23-9.89L35.23-9.89Q37.18-12.61 40.10-14.14L40.10-14.14L40.10-14.14Q43.01-15.68 45.06-16.58L45.06-16.58L41.02-25.86L41.02-25.86Q39.94-28.22 37.89-28.22L37.89-28.22L37.38-28.16L37.18-28.16L37.18-28.16Q37.57-30.40 40.19-32.13L40.19-32.13L40.19-32.13Q42.82-33.92 45.82-33.92L45.82-33.92L45.82-33.92Q50.69-33.92 52.93-29.06L52.93-29.06L53.44-28.03L56.19-21.25L56.19-21.25Q57.92-22.02 58.66-23.46L58.66-23.46L58.66-23.46Q59.39-24.90 59.39-27.74L59.39-27.74L59.39-27.74Q59.39-30.59 57.86-32.38L57.86-32.38L57.86-32.38Q60.29-33.92 63.49-33.92L63.49-33.92L63.49-33.92Q69.25-33.92 69.25-28.35L69.25-28.35L69.25-28.35Q69.25-22.27 61.63-18.75L61.63-18.75L57.79-16.96L61.25-8.06L61.25-8.06Q62.27-5.38 64.13-4.22L64.13-4.22L64.13-4.22Q64.90-3.71 65.79-3.65L65.79-3.65L65.79-3.65Q63.87-0.51 59.71 0.90L59.71 0.90L59.71 0.90Q58.43 1.28 56.70 1.28L56.70 1.28L56.70 1.28Q54.98 1.28 52.99 0.10L52.99 0.10L52.99 0.10Q51.01-1.09 50.30-2.94L50.30-2.94L46.78-12.10L46.78-12.10Q43.20-10.50 43.20-4.67L43.20-4.67L43.20-4.67Q43.20-1.98 44.03 0.19ZM73.44-1.92L73.44-1.92L73.44-1.92Q71.94-3.58 71.26-6.21L71.26-6.21L71.26-6.21Q70.59-8.83 70.59-13.12L70.59-13.12L70.59-13.12Q70.59-17.41 72.06-21.31L72.06-21.31L72.06-21.31Q73.54-25.22 76.22-28.03L76.22-28.03L76.22-28.03Q81.73-33.92 90.82-33.92L90.82-33.92L90.82-33.92Q94.08-33.92 96.45-32.83L96.45-32.83L107.39-33.92L102.66-8.96L102.66-8.96Q102.46-8.19 102.46-6.78L102.46-6.78L102.46-6.78Q102.46-5.38 103.33-4.48L103.33-4.48L103.33-4.48Q104.19-3.58 105.47-3.46L105.47-3.46L105.47-3.46Q104.83-1.28 102.50 0L102.50 0L102.50 0Q100.16 1.28 97.54 1.28L97.54 1.28L97.54 1.28Q94.91 1.28 93.15 0.29L93.15 0.29L93.15 0.29Q91.39-0.70 90.88-2.37L90.88-2.37L90.88-2.37Q89.86-0.77 87.68 0.26L87.68 0.26L87.68 0.26Q85.50 1.28 82.59 1.28L82.59 1.28L82.59 1.28Q79.68 1.28 77.31 0.51L77.31 0.51L77.31 0.51Q74.94-0.26 73.44-1.92ZM86.94-27.90L86.94-27.90L86.94-27.90Q86.21-26.75 85.57-24.80L85.57-24.80L85.57-24.80Q84.93-22.85 83.87-17.63L83.87-17.63L83.87-17.63Q82.82-12.42 82.82-8.70L82.82-8.70L82.82-8.70Q82.82-4.99 83.39-3.90L83.39-3.90L83.39-3.90Q83.97-2.82 84.99-2.82L84.99-2.82L84.99-2.82Q87.04-2.82 88.54-4.77L88.54-4.77L88.54-4.77Q90.05-6.72 90.62-10.18L90.62-10.18L94.02-28.93L94.02-28.93Q92.67-30.08 91.10-30.08L91.10-30.08L91.10-30.08Q89.54-30.08 88.61-29.57L88.61-29.57L88.61-29.57Q87.68-29.06 86.94-27.90ZM156.93 1.28L156.93 1.28L156.93 1.28Q149.18 1.28 149.18-4.74L149.18-4.74L149.18-4.74Q149.18-7.36 150.30-12.45L150.30-12.45L150.30-12.45Q151.42-17.54 151.81-19.58L151.81-19.58L151.81-19.58Q152.70-24.26 152.70-25.73L152.70-25.73L152.70-25.73Q152.70-28.99 150.27-28.99L150.27-28.99L150.27-28.99Q148.67-28.99 147.14-26.78L147.14-26.78L147.14-26.78Q145.60-24.58 144.90-20.16L144.90-20.16L140.93 0L128.45 1.28L131.90-16.13L131.90-16.13Q132.48-19.01 132.99-22.27L132.99-22.27L132.99-22.27Q133.50-25.54 133.50-26.05L133.50-26.05L133.50-26.05Q133.50-28.99 131.33-28.99L131.33-28.99L131.33-28.99Q129.86-28.99 128.26-26.82L128.26-26.82L128.26-26.82Q126.66-24.64 125.76-20.16L125.76-20.16L121.86 0L109.25 1.28L115.97-32.64L126.40-33.92L125.31-27.46L125.31-27.46Q126.98-30.91 130.05-32.42L130.05-32.42L130.05-32.42Q133.12-33.92 137.92-33.92L137.92-33.92L137.92-33.92Q140.67-33.92 142.46-32.58L142.46-32.58L142.46-32.58Q144.26-31.23 144.83-29.06L144.83-29.06L144.83-29.06Q145.92-31.30 148.70-32.61L148.70-32.61L148.70-32.61Q151.49-33.92 154.91-33.92L154.91-33.92L154.91-33.92Q158.34-33.92 160.03-33.18L160.03-33.18L160.03-33.18Q161.73-32.45 162.75-31.23L162.75-31.23L162.75-31.23Q164.48-28.99 164.48-24.90L164.48-24.90L164.48-24.90Q164.48-20.86 162.75-12.48L162.75-12.48L162.75-12.48Q161.86-8.38 161.86-6.88L161.86-6.88L161.86-6.88Q161.86-5.38 162.72-4.48L162.72-4.48L162.72-4.48Q163.58-3.58 164.86-3.46L164.86-3.46L164.86-3.46Q164.22-1.28 162.02 0L162.02 0L162.02 0Q159.81 1.28 156.93 1.28ZM199.62-4.38L199.62-4.38L199.62-4.38Q196.93-1.66 193.25-0.19L193.25-0.19L193.25-0.19Q189.57 1.28 185.92 1.28L185.92 1.28L185.92 1.28Q182.27 1.28 180.99 0.64L180.99 0.64L179.01 11.52L166.02 12.80L174.85-32.64L185.28-33.73L184.45-29.31L184.45-29.31Q187.14-33.86 192.70-33.86L192.70-33.86L192.70-33.86Q198.98-33.86 202.30-29.82L202.30-29.82L202.30-29.82Q205.25-26.18 205.25-20.61L205.25-20.61L205.25-20.61Q205.25-15.04 203.78-11.07L203.78-11.07L203.78-11.07Q202.30-7.10 199.62-4.38ZM185.15-22.34L181.76-3.58L181.76-3.58Q183.10-2.43 184.77-2.43L184.77-2.43L184.77-2.43Q186.43-2.43 187.39-3.07L187.39-3.07L187.39-3.07Q188.35-3.71 189.06-4.99L189.06-4.99L189.06-4.99Q190.98-8.45 192.51-18.94L192.51-18.94L192.51-18.94Q192.96-22.02 192.96-25.02L192.96-25.02L192.96-25.02Q192.96-28.03 192.29-28.99L192.29-28.99L192.29-28.99Q191.62-29.95 190.34-29.95L190.34-29.95L190.34-29.95Q186.43-29.95 185.15-22.34L185.15-22.34ZM224.38-3.52L224.38-3.52L224.38-3.52Q222.40 1.28 216.06 1.28L216.06 1.28L216.06 1.28Q212.86 1.28 210.82-0.96L210.82-0.96L210.82-0.96Q209.15-2.82 209.15-4.93L209.15-4.93L209.15-4.93Q209.15-9.73 211.39-20.22L211.39-20.22L216.06-44.80L229.06-46.08L222.85-13.70L222.85-13.70Q221.76-8.96 221.76-7.30L221.76-7.30L221.76-7.30Q221.76-3.65 224.38-3.52ZM255.74-10.82L255.74-10.82L255.74-10.82Q257.34-9.73 257.34-7.33L257.34-7.33L257.34-7.33Q257.34-4.93 256.13-3.39L256.13-3.39L256.13-3.39Q254.91-1.86 252.93-0.83L252.93-0.83L252.93-0.83Q248.83 1.28 244.42 1.28L244.42 1.28L244.42 1.28Q240 1.28 237.41 0.32L237.41 0.32L237.41 0.32Q234.82-0.64 233.09-2.43L233.09-2.43L233.09-2.43Q229.70-5.82 229.70-12.03L229.70-12.03L229.70-12.03Q229.70-21.70 234.94-27.58L234.94-27.58L234.94-27.58Q240.58-33.92 250.37-33.92L250.37-33.92L250.37-33.92Q256.45-33.92 259.46-31.36L259.46-31.36L259.46-31.36Q261.70-29.44 261.70-26.30L261.70-26.30L261.70-26.30Q261.70-15.04 242.24-15.04L242.24-15.04L242.24-15.04Q241.98-13.38 241.98-11.97L241.98-11.97L241.98-11.97Q241.98-9.02 243.30-7.90L243.30-7.90L243.30-7.90Q244.61-6.78 247.04-6.78L247.04-6.78L247.04-6.78Q249.47-6.78 252.06-7.90L252.06-7.90L252.06-7.90Q254.66-9.02 255.74-10.82ZM242.69-17.79L242.69-17.79L242.69-17.79Q247.23-17.79 249.86-20.61L249.86-20.61L249.86-20.61Q252.48-23.30 252.48-27.58L252.48-27.58L252.48-27.58Q252.48-29.06 251.94-29.86L251.94-29.86L251.94-29.86Q251.39-30.66 250.30-30.66L250.30-30.66L250.30-30.66Q249.22-30.66 248.29-30.24L248.29-30.24L248.29-30.24Q247.36-29.82 246.40-28.42L246.40-28.42L246.40-28.42Q244.03-25.22 242.69-17.79ZM290.62-9.86L290.62-9.86L290.62-9.86Q291.84-8.32 291.84-5.34L291.84-5.34L291.84-5.34Q291.84-2.37 289.57-0.54L289.57-0.54L289.57-0.54Q287.30 1.28 283.33 1.28L283.33 1.28L283.33 1.28Q281.02 1.28 277.44 0.77L277.44 0.77L277.44 0.77Q270.40-0.32 268.38-0.32L268.38-0.32L268.38-0.32Q266.37-0.32 265.54-0.22L265.54-0.22L265.54-0.22Q264.70-0.13 263.36 0L263.36 0L271.10-42.24L285.12-42.24L278.72-7.04L278.72-7.04Q279.55-6.91 280.32-6.91L280.32-6.91L281.92-6.91L281.92-6.91Q287.30-6.91 290.62-9.86ZM310.08 1.28L310.08 1.28L310.08 1.28Q296.00 1.28 296.00-11.97L296.00-11.97L296.00-11.97Q296.00-21.38 301.18-27.46L301.18-27.46L301.18-27.46Q306.69-33.92 316.22-33.92L316.22-33.92L316.22-33.92Q323.14-33.92 326.66-30.72L326.66-30.72L326.66-30.72Q330.18-27.52 330.18-20.80L330.18-20.80L330.18-20.80Q330.18-10.56 324.67-4.61L324.67-4.61L324.67-4.61Q319.30 1.28 310.08 1.28ZM311.74-26.56L311.74-26.56L311.74-26.56Q310.98-24.83 310.37-22.24L310.37-22.24L310.37-22.24Q309.76-19.65 308.99-15.55L308.99-15.55L308.99-15.55Q308.22-11.46 308.22-6.40L308.22-6.40L308.22-6.40Q308.22-4.74 308.77-3.65L308.77-3.65L308.77-3.65Q309.31-2.56 310.78-2.56L310.78-2.56L310.78-2.56Q312.26-2.56 313.18-3.26L313.18-3.26L313.18-3.26Q314.11-3.97 314.82-5.63L314.82-5.63L314.82-5.63Q316.10-8.58 317.12-14.05L317.12-14.05L317.12-14.05Q318.14-19.52 318.24-21.89L318.24-21.89L318.24-21.89Q318.34-24.26 318.34-26.02L318.34-26.02L318.34-26.02Q318.34-27.78 317.82-28.93L317.82-28.93L317.82-28.93Q317.31-30.08 315.87-30.08L315.87-30.08L315.87-30.08Q314.43-30.08 313.47-29.18L313.47-29.18L313.47-29.18Q312.51-28.29 311.74-26.56ZM338.50-26.75L338.50-26.75L338.50-26.75Q340.67-29.82 343.97-31.87L343.97-31.87L343.97-31.87Q347.26-33.92 351.30-33.92L351.30-33.92L351.30-33.92Q355.33-33.92 357.25-32.64L357.25-32.64L369.79-33.92L365.44-9.34L365.44-9.34Q363.20 3.20 358.46 8.13L358.46 8.13L358.46 8.13Q353.92 12.80 345.09 12.80L345.09 12.80L345.09 12.80Q338.37 12.80 334.53 10.69L334.53 10.69L334.53 10.69Q330.69 8.58 330.69 5.06L330.69 5.06L330.69 5.06Q330.69 2.43 332.67 0.93L332.67 0.93L332.67 0.93Q334.66-0.58 337.73-0.58L337.73-0.58L337.73-0.58Q340.42-0.58 342.46 0.64L342.46 0.64L342.46 0.64Q343.68 1.28 344.26 2.18L344.26 2.18L344.26 2.18Q342.78 3.46 342.78 5.57L342.78 5.57L342.78 5.57Q342.78 8.32 345.34 8.32L345.34 8.32L345.34 8.32Q349.63 8.32 352.06-1.79L352.06-1.79L352.06-1.79Q352.77-4.54 353.34-7.30L353.34-7.30L353.34-7.30Q350.46-3.78 343.94-3.78L343.94-3.78L343.94-3.78Q339.39-3.78 336.77-5.95L336.77-5.95L336.77-5.95Q334.14-8.13 334.14-13.25L334.14-13.25L334.14-13.25Q334.14-16.45 335.23-20.06L335.23-20.06L335.23-20.06Q336.32-23.68 338.50-26.75ZM346.82-13.06L346.82-13.06L346.82-13.06Q346.82-8.70 349.06-8.70L349.06-8.70L349.06-8.70Q350.59-8.70 352.06-10.37L352.06-10.37L352.06-10.37Q353.22-11.71 353.66-13.70L353.66-13.70L356.93-30.14L356.93-30.14Q356.61-30.21 356.29-30.34L356.29-30.34L356.29-30.34Q355.65-30.59 354.82-30.59L354.82-30.59L354.82-30.59Q350.91-30.59 348.61-24.19L348.61-24.19L348.61-24.19Q346.82-19.20 346.82-13.06ZM386.24 1.28L386.24 1.28L386.24 1.28Q372.16 1.28 372.16-11.97L372.16-11.97L372.16-11.97Q372.16-21.38 377.34-27.46L377.34-27.46L377.34-27.46Q382.85-33.92 392.38-33.92L392.38-33.92L392.38-33.92Q399.30-33.92 402.82-30.72L402.82-30.72L402.82-30.72Q406.34-27.52 406.34-20.80L406.34-20.80L406.34-20.80Q406.34-10.56 400.83-4.61L400.83-4.61L400.83-4.61Q395.46 1.28 386.24 1.28ZM387.90-26.56L387.90-26.56L387.90-26.56Q387.14-24.83 386.53-22.24L386.53-22.24L386.53-22.24Q385.92-19.65 385.15-15.55L385.15-15.55L385.15-15.55Q384.38-11.46 384.38-6.40L384.38-6.40L384.38-6.40Q384.38-4.74 384.93-3.65L384.93-3.65L384.93-3.65Q385.47-2.56 386.94-2.56L386.94-2.56L386.94-2.56Q388.42-2.56 389.34-3.26L389.34-3.26L389.34-3.26Q390.27-3.97 390.98-5.63L390.98-5.63L390.98-5.63Q392.26-8.58 393.28-14.05L393.28-14.05L393.28-14.05Q394.30-19.52 394.40-21.89L394.40-21.89L394.40-21.89Q394.50-24.26 394.50-26.02L394.50-26.02L394.50-26.02Q394.50-27.78 393.98-28.93L393.98-28.93L393.98-28.93Q393.47-30.08 392.03-30.08L392.03-30.08L392.03-30.08Q390.59-30.08 389.63-29.18L389.63-29.18L389.63-29.18Q388.67-28.29 387.90-26.56Z" fill="#ccc"></path></g></g><style>text {
  font-size: 64px;
  font-family: Arial Black;
  dominant-baseline: central;
  text-anchor: middle;
}</style></svg>